<svg width="674" height="104" viewBox="0 0 674 104" fill="none" xmlns="http://www.w3.org/2000/svg">
<path d="M84.0751 15.7514C82.4999 15.7514 81.2112 14.4626 81.2112 12.8875V4.29579C81.2112 2.72064 82.4999 1.43188 84.0751 1.43188H154.24C155.816 1.43188 157.104 2.72064 157.104 4.29579V12.8875C157.104 14.4626 155.816 15.7514 154.24 15.7514H129.897C128.322 15.7514 127.033 17.0401 127.033 18.6153V98.8043C127.033 100.379 125.745 101.668 124.17 101.668H114.146C112.571 101.668 111.282 100.379 111.282 98.8043V18.6153C111.282 17.0401 109.993 15.7514 108.418 15.7514H84.0751Z" fill="#FAFEFA"/>
<path d="M37.2306 103.1C15.6082 103.1 0 90.4991 0 73.0293V71.5974C0 70.0222 1.28875 68.7335 2.86389 68.7335H12.8875C14.4627 68.7335 15.7514 70.0222 15.7514 71.5974V73.0293C15.7514 82.1938 24.4863 88.7807 37.2306 88.7807C49.4022 88.7807 58.7098 82.7665 58.7098 74.3181V72.8861C58.7098 48.3998 2.7207 68.8767 2.7207 29.4981C2.7207 12.1716 17.1834 0 37.6602 0C57.7075 0 72.5997 11.742 72.5997 27.923V29.3549C72.5997 30.9301 71.311 32.2188 69.7358 32.2188H59.7122C58.1371 32.2188 56.8483 30.9301 56.8483 29.3549V27.923C56.8483 20.0473 49.6886 14.3195 37.6602 14.3195C26.3478 14.3195 18.4721 19.3313 18.4721 27.4934V28.9253C18.4721 51.5501 74.4613 34.3667 74.4613 72.3133C74.4613 90.4991 58.853 103.1 37.2306 103.1Z" fill="#FAFEFA"/>
<path d="M241.769 97.7328L207.597 3.9663C207.033 2.39223 205.906 1.68629 204.364 1.68629L192.269 1.68629C190.718 1.68629 189.6 2.40177 189.036 3.96629L154.883 97.7328C154.178 99.7266 155.587 101.587 157.552 101.587H168.378C169.929 101.587 170.907 100.871 171.47 99.3069L175.888 86.2946H175.878L176.94 83.2037L178.641 78.1858C178.679 78.0904 178.716 78.0045 178.754 77.9091L183.763 63.3419L189.75 45.7028H189.769L195.652 28.3691C196.498 25.6598 200.013 25.6598 200.99 28.3691L210.116 55.2331L214.599 67.7683L218.969 81.0096L225.181 99.3069C225.745 100.881 226.732 101.587 228.273 101.587H239.1C241.064 101.587 242.474 99.5931 241.769 97.7328Z" fill="#FAFEFA"/>
<path d="M599.544 4.29603C599.544 2.72088 600.833 1.43213 602.408 1.43213H612.431C614.006 1.43213 615.295 2.72088 615.295 4.29603V40.2379C615.295 43.1018 618.732 43.961 620.307 42.0994L653.958 3.00727C654.96 1.86171 656.106 1.43213 657.538 1.43213H668.85C671.284 1.43213 672.716 4.29603 670.998 6.15755L633.051 48.4C632.049 49.4024 632.049 50.9775 633.051 52.1231L673.289 96.943C674.721 98.5182 674.005 101.668 670.998 101.668H658.97C657.538 101.668 656.392 101.239 655.39 100.093L620.45 60.4284C618.589 58.2804 615.295 59.426 615.295 62.2899V98.8045C615.295 100.38 614.006 101.668 612.431 101.668H602.408C600.833 101.668 599.544 100.38 599.544 98.8045V4.29603Z" fill="#FAFEFA"/>
<path d="M541.862 103.1C516.946 103.1 498.904 85.0579 498.904 60.142V42.9587C498.904 18.0428 516.946 0.000244141 541.862 0.000244141C566.778 0.000244141 584.82 18.0428 584.82 42.9587V60.142C584.82 85.0579 566.778 103.1 541.862 103.1ZM541.862 88.781C557.613 88.781 569.069 77.3254 569.069 61.574V41.5267C569.069 25.7753 557.613 14.3197 541.862 14.3197C526.111 14.3197 514.655 25.7753 514.655 41.5267V61.574C514.655 77.3254 526.111 88.781 541.862 88.781Z" fill="#FAFEFA"/>
<path d="M436.548 101.668C434.973 101.668 433.684 100.38 433.684 98.8045V4.29603C433.684 2.72088 434.973 1.43213 436.548 1.43213H446.571C448.147 1.43213 449.435 2.72088 449.435 4.29603V84.4851C449.435 86.0602 450.724 87.349 452.299 87.349H490.962C492.537 87.349 493.826 88.6377 493.826 90.2129V98.8045C493.826 100.38 492.537 101.668 490.962 101.668H436.548Z" fill="#FAFEFA"/>
<path d="M347.957 4.29603C347.957 2.72088 349.246 1.43213 350.821 1.43213H360.845C362.42 1.43213 363.709 2.72088 363.709 4.29603V40.2379C363.709 43.1018 367.146 43.961 368.721 42.0994L402.371 3.00727C403.374 1.86171 404.519 1.43213 405.951 1.43213H417.264C419.698 1.43213 421.13 4.29603 419.412 6.15755L381.465 48.4C380.463 49.4024 380.463 50.9775 381.465 52.1231L421.703 96.943C423.135 98.5182 422.419 101.668 419.412 101.668H407.383C405.951 101.668 404.806 101.239 403.803 100.093L368.864 60.4284C367.002 58.2804 363.709 59.426 363.709 62.2899V98.8045C363.709 100.38 362.42 101.668 360.845 101.668H350.821C349.246 101.668 347.957 100.38 347.957 98.8045V4.29603Z" fill="#FAFEFA"/>
<path d="M295.45 103.1C270.534 103.1 252.491 85.0579 252.491 60.142V42.9587C252.491 18.0428 270.534 0.000244141 295.45 0.000244141C317.931 0.000244141 334.112 14.4629 334.112 34.367V35.7989C334.112 37.3741 332.824 38.6628 331.248 38.6628H321.225C319.65 38.6628 318.361 37.3741 318.361 35.7989V34.367C318.361 22.7682 308.767 14.3197 295.45 14.3197C279.698 14.3197 268.243 25.7753 268.243 41.5267V61.574C268.243 77.3254 279.698 88.781 295.45 88.781C308.767 88.781 318.361 80.3325 318.361 68.7337V67.3018C318.361 65.7266 319.65 64.4379 321.225 64.4379H331.248C332.824 64.4379 334.112 65.5834 334.112 67.3018V68.7337C334.112 88.6378 317.931 103.1 295.45 103.1Z" fill="#FAFEFA"/>
</svg>
